<svg width="256" height="256" viewBox="0 0 256 256" fill="none" xmlns="http://www.w3.org/2000/svg">
<g clip-path="url(#clip0_586_547)">
<path d="M45.3864 143.319H10.2235C5.28487 143.319 1.33398 139.398 1.33398 134.497C1.33398 129.596 5.28487 125.675 10.2235 125.675H45.3864C50.3251 125.675 54.2758 129.596 54.2758 134.497C54.2758 139.398 50.3251 143.319 45.3864 143.319Z" fill="#004643"/>
<path d="M59.8045 73.3278H50.1242C45.1853 73.3278 41.2344 69.4066 41.2344 64.5054C41.2344 59.6041 45.1853 55.6831 50.1242 55.6831H59.8045C64.7434 55.6831 68.6944 59.6041 68.6944 64.5054C68.6944 69.4066 64.7434 73.3278 59.8045 73.3278Z" fill="#004643"/>
<path d="M118.681 192.522C106.631 192.522 96.9512 202.129 96.9512 214.087C96.9512 226.046 106.631 235.652 118.681 235.652C130.731 235.652 140.41 226.046 140.41 214.087C140.213 202.129 130.533 192.522 118.681 192.522ZM118.681 220.753C114.927 220.753 111.964 217.812 111.964 214.087C111.964 210.362 114.927 207.422 118.681 207.422C122.434 207.422 125.397 210.362 125.397 214.087C125.2 217.616 122.237 220.753 118.681 220.753Z" fill="#FF9E0B"/>
<path d="M207.173 192.522C195.123 192.522 185.443 202.129 185.443 214.087C185.443 226.046 195.123 235.652 207.173 235.652C219.223 235.652 228.903 226.046 228.903 214.087C228.705 202.129 219.026 192.522 207.173 192.522ZM207.173 220.753C203.42 220.753 200.457 217.812 200.457 214.087C200.457 210.362 203.42 207.422 207.173 207.422C210.926 207.422 213.889 210.362 213.889 214.087C213.692 217.616 210.729 220.753 207.173 220.753Z" fill="#FF9E0B"/>
<path d="M255.376 192.717L229.102 69.2077C227.522 61.3658 220.41 55.6806 212.311 55.6806H203.816C203.421 55.4845 202.829 55.0923 202.433 54.8962C199.668 35.2916 182.481 20 161.937 20C141.392 20 124.402 34.8995 121.439 54.5041C120.847 54.8962 120.254 55.2884 119.661 55.6806H85.2883C80.3496 55.6806 76.3987 59.6014 76.3987 64.5026C76.3987 69.4038 80.3496 73.3246 85.2883 73.3246H96.7459C101.685 73.3246 105.636 77.2454 105.636 82.1467C105.636 84.4994 104.648 86.8518 103.067 88.4202C101.487 89.9886 99.3142 90.9687 96.7459 90.9687H53.0881C48.1494 90.9687 44.1986 94.8898 44.1986 99.7907C44.1986 104.692 48.1494 108.613 53.0881 108.613H96.351C101.29 108.613 105.241 112.534 105.241 117.435C105.241 119.787 104.253 121.944 102.673 123.709C101.092 125.277 98.919 126.257 96.351 126.257H72.2503C67.3116 126.257 63.3605 130.178 63.3605 135.079C63.3605 139.98 67.3116 143.901 72.2503 143.901H78.7692C83.5103 143.901 87.4614 147.822 87.4614 152.723C87.4614 155.076 86.4735 157.233 84.8931 158.997C83.3127 160.565 81.1399 161.545 78.5716 161.545H38.4698C33.5311 161.545 29.5801 165.466 29.5801 170.368C29.5801 175.269 33.5311 179.19 38.4698 179.19H80.152C85.0907 179.19 89.0418 183.111 89.0418 188.012C89.0418 190.364 88.0539 192.521 86.4735 194.285C84.8931 195.853 82.7203 196.834 80.152 196.834H48.347C43.4083 196.834 39.4574 200.755 39.4574 205.656C39.4574 210.557 43.4083 214.478 48.347 214.478H89.6343C90.0294 199.382 102.673 187.228 118.081 187.228C133.49 187.228 145.935 199.382 146.528 214.478H178.333C178.728 199.382 191.371 187.228 206.78 187.228C222.188 187.228 234.634 199.382 235.226 214.478H238.387C249.45 213.106 257.549 203.303 255.376 192.717ZM129.934 55.0923C132.7 39.9968 145.935 28.43 161.937 28.43C178.135 28.43 191.569 40.3888 194.137 55.6806H130.724C130.526 55.4845 130.329 55.2884 129.934 55.0923ZM125.193 158.213C123.612 159.781 121.439 160.761 118.871 160.761H106.228C101.29 160.761 97.3386 156.84 97.3386 151.939C97.3386 149.587 98.3263 147.43 99.9066 145.666C101.487 144.097 103.66 143.117 106.228 143.117H118.871C123.81 143.117 127.761 147.038 127.761 151.939C127.761 154.488 126.773 156.644 125.193 158.213ZM203.224 94.6937C200.261 114.102 183.272 129.198 162.727 129.198C142.182 129.198 124.995 113.906 122.23 94.3015C119.069 93.1253 116.896 90.1846 116.896 86.6557C116.896 82.1467 120.649 78.4219 125.193 78.4219C129.736 78.4219 133.49 82.1467 133.49 86.6557C133.49 89.2042 132.304 91.5569 130.526 92.9292C132.7 108.809 146.33 120.964 162.727 120.964C178.728 120.964 192.161 109.397 194.729 94.3015C192.556 92.7331 190.976 90.3807 190.976 87.44C190.976 82.931 194.729 79.206 199.273 79.206C203.816 79.206 207.57 82.931 207.57 87.44C207.965 90.5768 205.989 93.3214 203.224 94.6937Z" fill="url(#paint0_linear_586_547)"/>
</g>
<defs>
<linearGradient id="paint0_linear_586_547" x1="142.655" y1="20" x2="142.655" y2="214.478" gradientUnits="userSpaceOnUse">
<stop stop-color="#004643"/>
<stop offset="1" stop-color="#459793"/>
</linearGradient>
<clipPath id="clip0_586_547">
<rect width="254.4" height="216" fill="white" transform="translate(1.33398 20)"/>
</clipPath>
</defs>
</svg>
